HIERARCHY
ROOT Hips
{
	OFFSET -0.001795 -0.223333 0.028219
	CHANNELS 6 Xposition Yposition Zposition Zrotation Yrotation Xrotation 
	JOINT LeftUpLeg
	{
		OFFSET 0.069520 -0.091406 -0.006815
		CHANNELS 3 Zrotation Yrotation Xrotation
		JOINT LeftLeg
		{
			OFFSET 0.034277 -0.375199 -0.004496
			CHANNELS 3 Zrotation Yrotation Xrotation
			JOINT LeftFoot
			{
				OFFSET -0.013596 -0.397961 -0.043693
				CHANNELS 3 Zrotation Yrotation Xrotation
				JOINT LeftToe
				{
					OFFSET 0.026358 -0.055791 0.119288
					CHANNELS 3 Zrotation Yrotation Xrotation
					End Site
					{
						OFFSET 0.000000 0.000000 0.000000
					}
				}
			}
		}
	}
	JOINT RightUpLeg
	{
		OFFSET -0.067670 -0.090522 -0.004320
		CHANNELS 3 Zrotation Yrotation Xrotation
		JOINT RightLeg
		{
			OFFSET -0.038290 -0.382569 -0.008850
			CHANNELS 3 Zrotation Yrotation Xrotation
			JOINT RightFoot
			{
				OFFSET 0.015774 -0.398415 -0.042312
				CHANNELS 3 Zrotation Yrotation Xrotation
				JOINT RightToe
				{
					OFFSET -0.025372 -0.048144 0.123348
					CHANNELS 3 Zrotation Yrotation Xrotation
					End Site
					{
						OFFSET 0.000000 0.000000 0.000000
					}
				}
			}
		}
	}
	JOINT Spine
	{
		OFFSET -0.002533 0.108963 -0.026696
		CHANNELS 3 Zrotation Yrotation Xrotation
		JOINT Spine1
		{
			OFFSET 0.005487 0.135180 0.001092
			CHANNELS 3 Zrotation Yrotation Xrotation
			JOINT Spine2
			{
				OFFSET 0.001457 0.052922 0.025425
				CHANNELS 3 Zrotation Yrotation Xrotation
				JOINT Neck
				{
					OFFSET -0.002778 0.213870 -0.042857
					CHANNELS 3 Zrotation Yrotation Xrotation
					JOINT Head
					{
						OFFSET 0.005152 0.064970 0.051349
						CHANNELS 3 Zrotation Yrotation Xrotation
						End Site
						{
							OFFSET 0.000000 0.000000 0.000000
						}
					}
				}
				JOINT LeftShoulder
				{
					OFFSET 0.078845 0.121749 -0.034090
					CHANNELS 3 Zrotation Yrotation Xrotation
					JOINT LeftArm
					{
						OFFSET 0.090977 0.030469 -0.008868
						CHANNELS 3 Zrotation Yrotation Xrotation
						JOINT LeftForeArm
						{
							OFFSET 0.259612 -0.012772 -0.027456
							CHANNELS 3 Zrotation Yrotation Xrotation
							JOINT LeftHand
							{
								OFFSET 0.249234 0.008986 -0.001171
								CHANNELS 3 Zrotation Yrotation Xrotation
								End Site
								{
									OFFSET 0.000000 0.000000 0.000000
								}
							}
						}
					}
				}
				JOINT RightShoulder
				{
					OFFSET -0.081759 0.118833 -0.038615
					CHANNELS 3 Zrotation Yrotation Xrotation
					JOINT RightArm
					{
						OFFSET -0.096012 0.032551 -0.009143
						CHANNELS 3 Zrotation Yrotation Xrotation
						JOINT RightForeArm
						{
							OFFSET -0.253742 -0.013329 -0.021401
							CHANNELS 3 Zrotation Yrotation Xrotation
							JOINT RightHand
							{
								OFFSET -0.255298 0.007772 -0.005559
								CHANNELS 3 Zrotation Yrotation Xrotation
								End Site
								{
									OFFSET 0.000000 0.000000 0.000000
								}
							}
						}
					}
				}
			}
		}
	}
}
MOTION
Frames: 7
Frame Time: 0.050000
0.000000 0.940558 0.000000 -0.666408 -0.676142 5.793043 6.893681 -0.287701 -3.826066 3.267051 -0.064676 -4.609092 2.614498 9.421987 15.018047 0.000000 0.000000 0.000000 -4.381278 0.504038 -5.400100 -1.183191 0.076497 -0.893571 1.622189 -2.282031 12.897072 0.000000 0.000000 0.000000 4.243210 0.229595 -4.425795 -2.365601 1.115448 -2.737189 -2.555798 3.877591 2.681752 3.338946 -1.755352 -5.969500 0.000000 0.000000 0.000000 -16.397196 -0.947572 -1.993020 -55.708852 -5.404332 -3.873221 -5.245584 -14.827427 1.123568 0.000000 0.000000 0.000000 14.081289 -3.287818 -2.245647 63.758066 4.698139 -3.208739 4.173045 17.328470 1.216842 0.000000 0.000000 0.000000 
0.000331 0.939750 0.000122 -0.847167 -2.009369 6.364193 6.959400 -0.254050 -3.088820 3.299256 0.042984 -6.391515 3.259514 10.313123 15.521794 0.000000 0.000000 0.000000 -4.463833 0.583991 -6.412132 -0.940412 0.063617 -0.624168 2.167774 -1.360973 12.690835 0.000000 0.000000 0.000000 5.202113 0.249498 -4.552606 -3.333893 1.523766 -3.386210 -2.748449 5.093093 2.437055 2.656106 -1.230774 -6.003873 0.000000 0.000000 0.000000 -17.461146 -0.462217 -2.520362 -55.010571 -5.112126 -3.880461 -5.074752 -15.071902 1.104485 0.000000 0.000000 0.000000 14.254786 -4.056769 -2.564109 64.325485 4.405253 -3.321862 4.261768 16.637591 1.182026 0.000000 0.000000 0.000000 
0.000567 0.939886 0.000092 -0.444579 -1.370924 6.160592 6.524175 -0.279958 -3.611160 3.337529 -0.021329 -5.397747 2.954280 9.883326 15.218173 0.000000 0.000000 0.000000 -4.899142 0.570133 -6.426874 -0.883663 0.089646 0.006411 1.805097 -1.868108 12.477886 0.000000 0.000000 0.000000 4.745369 0.209746 -4.147802 -2.739813 1.262689 -4.727341 -3.510935 4.498733 2.914233 2.593714 -1.167451 -6.179317 0.000000 0.000000 0.000000 -16.794049 -0.354450 -2.431420 -55.441800 -4.810719 -4.135520 -4.619574 -14.314838 0.999851 0.000000 0.000000 0.000000 15.334005 -2.816360 -2.021452 62.709650 4.535480 -3.319115 4.346831 16.037815 1.140015 0.000000 0.000000 0.000000 
0.000821 0.939909 0.000166 -0.469768 -1.563319 6.504630 6.689369 -0.285498 -3.736704 3.043631 0.018062 -5.747688 3.049435 10.027552 15.365695 0.000000 0.000000 0.000000 -4.958733 0.619532 -7.184673 -0.796887 0.109997 0.631547 1.845268 -1.797269 12.430649 0.000000 0.000000 0.000000 4.697562 0.211503 -4.225662 -3.205951 1.456699 -4.676738 -2.933614 4.078223 2.020027 1.752520 -0.738658 -5.000384 0.000000 0.000000 0.000000 -16.655668 0.407684 -2.676628 -56.185886 -4.941213 -4.066117 -3.535116 -14.209693 0.868754 0.000000 0.000000 0.000000 14.015056 -2.681879 -1.992137 62.981266 4.203280 -3.383695 5.232887 16.434289 1.261246 0.000000 0.000000 0.000000 
0.001030 0.940521 0.000230 -0.260755 -1.004996 6.470709 6.194367 -0.302345 -3.879522 3.553613 -0.013561 -5.684422 2.716929 9.624905 15.481826 0.000000 0.000000 0.000000 -5.209585 0.595023 -6.956430 -0.696500 0.092966 0.481438 1.625079 -2.212604 12.628970 0.000000 0.000000 0.000000 4.358110 0.203289 -4.186405 -2.701140 1.249498 -4.908746 -3.254242 3.759197 2.102256 1.462615 -0.465702 -5.500452 0.000000 0.000000 0.000000 -16.573796 0.370512 -2.656033 -56.374604 -5.238604 -3.953149 -4.062035 -13.838100 0.908257 0.000000 0.000000 0.000000 13.901170 -2.914104 -2.085171 62.709209 4.302323 -3.320690 5.595666 16.329463 1.299132 0.000000 0.000000 0.000000 
0.001264 0.941016 0.000349 -0.156860 -1.015337 6.706908 6.178553 -0.315387 -4.141602 3.346118 -0.002122 -5.670149 2.701062 9.630472 15.646498 0.000000 0.000000 0.000000 -5.276856 0.610476 -7.207632 -0.815385 0.105055 0.472802 1.642188 -2.248424 12.801928 0.000000 0.000000 0.000000 4.180677 0.195022 -4.139557 -2.702140 1.247553 -5.298522 -3.057975 3.664761 2.039536 1.347332 -0.443588 -5.036592 0.000000 0.000000 0.000000 -16.754712 0.840969 -2.888360 -56.399858 -5.100857 -4.012216 -4.451895 -14.226371 0.983419 0.000000 0.000000 0.000000 13.297767 -2.880308 -2.046495 62.958361 4.202144 -3.359861 5.805255 16.293905 1.316758 0.000000 0.000000 0.000000 
0.001443 0.941382 0.000389 -0.070896 -0.886539 6.811879 5.995924 -0.330037 -4.391343 3.494566 -0.021926 -5.489462 2.625915 9.548451 15.711883 0.000000 0.000000 0.000000 -5.300706 0.605699 -7.133940 -0.945502 0.104902 0.181341 1.611750 -2.354158 12.976454 0.000000 0.000000 0.000000 3.995297 0.183110 -4.023357 -2.552702 1.186458 -5.341360 -3.204493 3.311588 1.925671 1.402105 -0.459949 -5.323410 0.000000 0.000000 0.000000 -16.480760 1.047264 -2.898662 -56.450947 -4.917130 -4.100736 -5.394266 -14.863414 1.150473 0.000000 0.000000 0.000000 13.171758 -2.794682 -2.034156 62.952898 4.055108 -3.436394 5.916094 16.755647 1.369263 0.000000 0.000000 0.000000 
